HIERARCHY
ROOT root
{
	OFFSET	0	13.1	24.9
	CHANNELS 6  Xposition Yposition Zposition Xrotation Yrotation Zrotation
	JOINT spine_1
	{
		OFFSET	0	9.99999	0
		CHANNELS 3  Xrotation Yrotation Zrotation
		JOINT spine_2
		{
			OFFSET	0	112	-10
			CHANNELS 3  Xrotation Yrotation Zrotation
			JOINT spine_3
			{
				OFFSET	0	206.5	19.3
				CHANNELS 3  Xrotation Yrotation Zrotation
				JOINT spine_4
				{
					OFFSET	0	110.4	14.6
					CHANNELS 3  Xrotation Yrotation Zrotation
					JOINT neck_1
					{
						OFFSET	0	71.8	-50.3
						CHANNELS 3  Xrotation Yrotation Zrotation
						JOINT neck_2
						{
							OFFSET	0	86.2	-25.8
							CHANNELS 3  Xrotation Yrotation Zrotation
							JOINT head_ee
							{
								OFFSET	0	179.8	-8.7
								CHANNELS 3  Xrotation Yrotation Zrotation
								End Site
								{
									OFFSET	1	0	0
								}
							}
						}
					}
					JOINT left_clavicle
					{
						OFFSET	-43.2	22.4	-70.8
						CHANNELS 3  Xrotation Yrotation Zrotation
						JOINT left_shoulder
						{
							OFFSET	-93.9	-5.79999	48.7
							CHANNELS 3  Xrotation Yrotation Zrotation
							JOINT left_elbow
							{
								OFFSET	-291.4	-30.8	15.2
								CHANNELS 3  Xrotation Yrotation Zrotation
								JOINT left_lowarm_twist
								{
									OFFSET	-110.7	-3.89999	13.6
									CHANNELS 3  Xrotation Yrotation Zrotation
									JOINT left_hand
									{
										OFFSET	-110.7	-3.89999	13.6
										CHANNELS 3  Xrotation Yrotation Zrotation
										JOINT left_ee
										{
											OFFSET	-80.8	-5.10001	12.1
											CHANNELS 3  Xrotation Yrotation Zrotation
											End Site
											{
												OFFSET	1	0	0
											}
										}
									}
								}
							}
						}
					}
					JOINT right_clavicle
					{
						OFFSET	43.2	22.4	-70.8
						CHANNELS 3  Xrotation Yrotation Zrotation
						JOINT right_shoulder
						{
							OFFSET	93.9	-5.79999	48.7
							CHANNELS 3  Xrotation Yrotation Zrotation
							JOINT right_elbow
							{
								OFFSET	291.4	-30.8	15.2
								CHANNELS 3  Xrotation Yrotation Zrotation
								JOINT right_lowarm_twist
								{
									OFFSET	110.7	-3.89999	13.6
									CHANNELS 3  Xrotation Yrotation Zrotation
									JOINT right_hand
									{
										OFFSET	110.7	-3.89999	13.6
										CHANNELS 3  Xrotation Yrotation Zrotation
										JOINT right_ee
										{
											OFFSET	80.8	-5.10001	12.1
											CHANNELS 3  Xrotation Yrotation Zrotation
											End Site
											{
												OFFSET	1	0	0
											}
										}
									}
								}
							}
						}
					}
				}
			}
		}
	}
	JOINT left_hip
	{
		OFFSET	-82.8	-127.5	0.300001
		CHANNELS 3  Xrotation Yrotation Zrotation
		JOINT left_knee
		{
			OFFSET	-28.2	-396.7	2.2
			CHANNELS 3  Xrotation Yrotation Zrotation
			JOINT left_ankle
			{
				OFFSET	-11.7	-411.3	35.4
				CHANNELS 3  Xrotation Yrotation Zrotation
				JOINT left_toes
				{
					OFFSET	0	-60	-88.6
					CHANNELS 3  Xrotation Yrotation Zrotation
					JOINT left_foot_ee
					{
						OFFSET	-22.5	-16.5	-42.2
						CHANNELS 3  Xrotation Yrotation Zrotation
						End Site
						{
							OFFSET	1	0	0
						}
					}
				}
			}
		}
	}
	JOINT right_hip
	{
		OFFSET	82.8	-127.5	0.300001
		CHANNELS 3  Xrotation Yrotation Zrotation
		JOINT right_knee
		{
			OFFSET	28.2	-396.7	2.2
			CHANNELS 3  Xrotation Yrotation Zrotation
			JOINT right_ankle
			{
				OFFSET	11.7	-411.3	35.4
				CHANNELS 3  Xrotation Yrotation Zrotation
				JOINT right_toes
				{
					OFFSET	0	-60	-88.6
					CHANNELS 3  Xrotation Yrotation Zrotation
					JOINT right_foot_ee
					{
						OFFSET	22.5	-16.5	-42.2
						CHANNELS 3  Xrotation Yrotation Zrotation
						End Site
						{
							OFFSET	1	0	0
						}
					}
				}
			}
		}
	}
}
MOTION
Frames: 7
Frame Time: 0.02
1476.43 707.259 -988.721 175.199 -63.1827 170.481 -2.52058 0.520906 0.95157 -2.52019 0.459302 0.982785 -2.51149 0.195968 1.06696 -2.5129 0.362007 1.02263 3.72519 -0.437859 -3.49605 3.77118 2.25328 -3.96148 -0.0 0.0 -0.0 10.371 4.46273 20.115 -25.0219 -5.78302 59.4553 0.631371 -17.3678 0.0964329 81.9031 -4.05971 -8.71339 -3.23036 23.8136 -9.03082 -0.0 0.0 -0.0 11.4296 12.148 -22.9754 -0.196842 22.199 -42.1787 1.62266 38.79 -0.571304 73.0772 3.06577 8.1724 1.42482 7.98799 -6.24091 0.0 0.0 0.0 30.72 1.45258 8.58406 -8.82772 0.26157 1.3282 20.5522 27.9591 -2.99501 36.4164 -0.0 -0.0 -0.0 0.0 -0.0 -7.14293 -25.9414 15.9441 -22.7534 -0.252783 -3.45965 37.5889 7.28444 4.75558 40.0657 -0.0 -0.0 0.0 0.0 0.0 
1504.39 711.24 -981.681 175.731 -62.0502 172.582 -2.41707 0.42943 0.659038 -2.41691 0.386624 0.685027 -2.41189 0.202225 0.760158 -2.41255 0.319736 0.718684 4.56587 0.00375748 -0.263886 4.56619 0.236038 -0.299685 -0.0 0.0 -0.0 10.4196 4.80497 20.1829 -23.9068 -6.17708 59.7231 0.685094 -18.746 0.113086 82.3012 -4.10639 -8.73413 -3.22211 23.2897 -9.28242 -0.0 0.0 -0.0 11.5787 12.1878 -23.3108 -1.3373 21.4152 -42.437 1.51408 36.8686 -0.504699 73.2284 3.08207 8.18294 1.36022 7.41602 -6.04627 0.0 0.0 0.0 31.3384 0.922307 7.47124 -12.6131 0.310507 1.90686 20.9699 27.6629 -3.04467 37.9014 -0.0 -0.0 -0.0 0.0 -0.0 -6.30722 -25.9899 18.2869 -21.6846 -0.271819 -3.29674 35.4794 7.20751 4.5558 39.2594 -0.0 -0.0 0.0 0.0 0.0 
1527.09 718.503 -974.599 174.561 -61.4837 171.752 -2.58002 0.375634 0.492598 -2.57995 0.343528 0.515501 -2.57662 0.201389 0.585827 -2.57698 0.29138 0.546672 5.04756 0.245338 1.85502 5.06089 -1.20251 2.13345 -0.0 0.0 -0.0 10.599 5.54891 20.4724 -23.6261 -6.3291 60.4983 0.723273 -19.712 0.125661 82.4569 -4.12469 -8.74215 -3.1763 22.919 -9.22584 -0.0 0.0 -0.0 11.6826 12.2231 -23.5449 -2.84997 21.1332 -43.3652 1.44293 35.5544 -0.462662 73.3337 3.09343 8.19025 1.32436 6.78166 -6.07229 0.0 0.0 0.0 31.7774 0.535565 6.66373 -15.2883 0.321993 2.31712 21.2632 27.6934 -3.0841 38.8061 -0.0 -0.0 -0.0 0.0 -0.0 -6.21178 -26.3124 19.3246 -20.9736 -0.282795 -3.1882 34.0044 7.15803 4.41038 38.682 -0.0 -0.0 0.0 0.0 0.0 
1552.65 707.281 -966.575 176.103 -60.0844 173.158 -2.2995 0.328875 0.322702 -2.29949 0.307674 0.342975 -2.29755 0.212504 0.408824 -2.29768 0.274403 0.370133 5.42931 0.465229 3.27508 5.47086 -2.08353 3.78578 -0.0 0.0 -0.0 10.4369 5.88976 20.1192 -23.4318 -6.30866 60.3041 0.751386 -20.416 0.135306 82.5832 -4.13955 -8.74862 -3.14092 22.6259 -9.18436 -0.0 0.0 -0.0 11.5692 12.298 -23.2876 -3.98356 20.9044 -43.7946 1.38218 34.3973 -0.42784 73.4051 3.10114 8.19519 1.28757 6.23049 -6.05583 0.0 0.0 0.0 31.3028 0.383259 6.53026 -17.7509 0.315629 2.69488 21.4924 27.7134 -3.11477 39.4427 -0.0 -0.0 -0.0 0.0 -0.0 -6.19617 -26.504 20.0252 -20.5953 -0.288087 -3.13039 32.9724 7.12631 4.30589 38.2834 -0.0 -0.0 0.0 0.0 0.0 
1580.98 710.165 -955.713 174.886 -59.3889 171.715 -2.22833 0.304187 0.276693 -2.22833 0.285964 0.295488 -2.22679 0.203752 0.357175 -2.22687 0.257604 0.320514 5.7002 0.957848 4.00951 5.7561 -1.90272 4.66644 -0.0 0.0 -0.0 10.3885 7.92859 19.8206 -22.3263 -6.7988 59.3285 0.771395 -20.9131 0.142367 80.8148 -3.93282 -8.65503 -3.05938 20.3834 -9.95755 -0.0 0.0 -0.0 11.3227 12.6005 -22.7265 -7.04242 20.1455 -43.6084 1.30175 32.8144 -0.38332 73.9022 3.15502 8.22937 1.31319 4.56676 -6.92869 0.0 0.0 0.0 30.4603 0.254064 6.4301 -21.996 0.266586 3.34424 21.6445 27.1926 -3.12423 40.0776 -0.0 -0.0 -0.0 0.0 -0.0 -6.21025 -24.3777 20.6455 -24.2084 -0.221994 -3.68079 31.2331 5.67204 4.1028 38.5217 -0.0 -0.0 0.0 0.0 0.0 
1614.21 728.574 -947.913 173.528 -59.794 170.889 -2.31703 0.281693 0.228091 -2.31704 0.266608 0.245553 -2.31585 0.196911 0.304306 -2.3159 0.242499 0.269389 5.39805 2.15388 3.55289 5.42928 0.557755 4.18059 -0.0 0.0 -0.0 10.1395 9.42621 19.1834 -20.7594 -7.69331 60.0001 0.826528 -22.2659 0.162655 78.4646 -3.66268 -8.52086 -2.8954 15.5485 -11.5992 -0.0 0.0 -0.0 10.9749 12.5494 -21.9472 -10.5195 19.2729 -45.0617 1.15124 29.6948 -0.305199 74.0126 3.16702 8.23689 1.38278 4.38709 -7.47621 0.0 0.0 0.0 28.1701 0.232391 6.69343 -26.0345 0.175414 3.95715 23.6274 25.3358 -3.34292 40.1201 -0.0 -0.0 -0.0 0.0 -0.0 -4.06596 -20.2889 19.6002 -36.7318 0.272046 -5.53532 34.3993 4.14533 4.40338 39.9216 -0.0 -0.0 0.0 0.0 0.0 
1643.86 728.904 -943.325 173.822 -60.5554 171.436 -1.96257 0.250359 0.0952979 -1.9626 0.243787 0.111036 -1.96213 0.209408 0.167061 -1.96209 0.233164 0.131892 5.36483 3.51746 2.09331 5.38709 4.17457 2.56608 -0.0 0.0 -0.0 10.3466 9.881 19.5224 -19.071 -9.39238 59.415 0.862182 -23.1271 0.176412 77.0865 -3.50692 -8.43707 -2.7877 12.1077 -12.748 -0.0 0.0 -0.0 10.8311 14.4478 -21.5703 -13.5429 18.6257 -46.1532 0.922192 24.5518 -0.200669 74.7328 3.24569 8.28542 1.16273 2.53797 -6.75162 0.0 0.0 0.0 27.0244 -1.34309 7.58476 -26.553 0.160585 4.03534 24.4811 24.9382 -3.44238 39.4242 -0.0 -0.0 -0.0 0.0 -0.0 -2.70749 -17.0825 18.6709 -46.3552 0.919751 -6.86396 36.6746 2.12484 4.59716 40.158 -0.0 -0.0 0.0 0.0 0.0 
